# xmcd
# 
# Track frame offsets:
#     150
#     58612
#     106064
#     155671
#     190846
#     252637
#     304304
# 
# Disc length: 4493
# 
# Revision: 0
# Processed by: cddbd v1.5.2PL0 Copyright (c) Steve Scherf et al.
# Submitted via: fre:ac v1.0.17
# 
DISCID=5d118b07
DTITLE=Mary Sharratt - Der Liebesbund
DYEAR=0
DGENRE=
TTITLE0=01 Der Liebesbund
TTITLE1=02 Der Liebesbund
TTITLE2=03 Der Liebesbund
TTITLE3=04 Der Liebesbund
TTITLE4=05 Der Liebesbund
TTITLE5=06 Der Liebesbund
TTITLE6=07 Der Liebesbund
EXTD=
EXTT0=
EXTT1=
EXTT2=
EXTT3=
EXTT4=
EXTT5=
EXTT6=
PLAYORDER=
